<svg id="Layer_3" enable-background="new 0 0 64 64" height="512" viewBox="0 0 64 64" width="512" xmlns="http://www.w3.org/2000/svg"><g><path d="m61.109 44.361c-.943-1.414-2.494-2.274-4.182-2.347-.339-3.871-1.997-7.466-4.762-10.257 1.334-1.092 2.482-2.355 3.398-3.758h5.437v-2h-4.325c.432-.944.766-1.932.989-2.955l3.623-1.087-.574-1.916-2.763.829c.018-.289.05-.576.05-.87 0-1.382-.219-2.715-.591-3.995l.595-.595c1.932-1.932 2.996-4.5 2.996-7.232 0-1.58-.374-3.161-1.08-4.574l-1.026-2.052c-.197-.393-.629-.611-1.059-.539l-1.067.178c-3.237.539-6.115 2.224-8.186 4.747-2.553-1.235-5.477-1.938-8.582-1.938s-6.029.703-8.582 1.939c-2.071-2.523-4.949-4.208-8.186-4.747l-1.068-.178c-.432-.072-.863.146-1.059.539l-1.025 2.051c-.706 1.413-1.08 2.995-1.08 4.574 0 2.731 1.064 5.3 2.996 7.231l.595.595c-.372 1.281-.591 2.614-.591 3.996 0 .294.032.581.05.871l-2.763-.829-.574 1.916 3.623 1.087c.223 1.023.557 2.011.989 2.955h-4.325v2h5.436c.916 1.402 2.064 2.666 3.398 3.758-2.765 2.791-4.423 6.386-4.762 10.257-1.688.073-3.239.933-4.182 2.347-.127.191-.235.391-.336.594-1.441-.218-2.554-1.454-2.554-2.956v-12c0-3.86-3.14-7-7-7s-7 3.14-7 7c0 1.654 1.346 3 3 3s3-1.346 3-3c0-.551.449-1 1-1s1 .449 1 1v13c0 4.411 3.589 8 8 8h.468c.364.817.924 1.544 1.653 2.091l1.563 1.172c.198.149.316.384.316.632 0 .301-.167.571-.458.717-.951.475-1.542 1.43-1.542 2.493v.105c0 1.539 1.251 2.79 2.789 2.79h3.532c.543 1.177 1.727 2 3.106 2h5.744c1.446 0 2.691-.815 3.343-2h2.972c.651 1.185 1.897 2 3.343 2h5.744c1.379 0 2.563-.823 3.106-2h3.532c1.538 0 2.789-1.251 2.789-2.789v-.105c0-1.063-.591-2.019-1.564-2.505-.269-.135-.436-.406-.436-.706 0-.247.118-.483.315-.631l1.563-1.173c1.329-.997 2.122-2.583 2.122-4.242v-1.546c0-1.05-.308-2.067-.891-2.942zm-43.109 4.639c-3.309 0-6-2.691-6-6v-13c0-1.654-1.346-3-3-3s-3 1.346-3 3c0 .551-.449 1-1 1s-1-.449-1-1c0-2.757 2.243-5 5-5s5 2.243 5 5v12c0 2.424 1.736 4.448 4.029 4.902-.01.134-.029.266-.029.401v1.546c0 .051.008.101.009.151zm22-13c-1.424 0-2.669.754-3.377 1.878-2.763-.685-5.244-2.255-7.027-4.484l-.256-.32.127-.127c2.965 1.912 6.598 3.053 10.533 3.053s7.568-1.141 10.533-3.053l.127.127-.255.32c-1.784 2.229-4.265 3.799-7.027 4.484-.709-1.124-1.954-1.878-3.378-1.878zm-1 4v1.722c-.595-.347-1-.985-1-1.722 0-1.103.897-2 2-2s2 .897 2 2c0 .737-.405 1.375-1 1.722v-1.722zm18.097-36.835.339-.057.695 1.391c.569 1.136.869 2.409.869 3.679 0 2.169-.837 4.208-2.353 5.755-.654-1.412-1.53-2.72-2.587-3.896.577-1.448 1.77-2.593 3.256-3.089l-.632-1.897c-1.781.594-3.255 1.869-4.132 3.503-.682-.591-1.419-1.132-2.2-1.622 1.745-1.997 4.106-3.328 6.745-3.767zm-16.097 2.879v8.956c0 .551-.449 1-1 1s-1-.449-1-1v-8.956c.332-.018.662-.044 1-.044s.668.026 1 .044zm-20 2.134c0-1.271.3-2.543.869-3.679l.695-1.391.34.057c2.638.44 4.999 1.771 6.744 3.768-.781.49-1.518 1.03-2.2 1.622-.877-1.634-2.351-2.909-4.132-3.503l-.632 1.897c1.486.495 2.679 1.64 3.256 3.089-1.057 1.176-1.933 2.484-2.587 3.896-1.516-1.548-2.353-3.587-2.353-5.756zm5.888 19.822h2.112v-2h-3.434c-.397-.728-.724-1.488-.974-2.278l4.121 1.236.574-1.916-5.195-1.558c-.059-.488-.092-.983-.092-1.484 0-5.521 3.681-10.292 9-12.57v6.57h2v-7.29c.65-.188 1.317-.34 2-.454v8.744c0 1.654 1.346 3 3 3s3-1.346 3-3v-8.745c.683.114 1.35.267 2 .454v7.291h2v-6.57c5.319 2.278 9 7.048 9 12.57 0 .501-.033.996-.092 1.484l-5.195 1.558.574 1.916 4.121-1.236c-.25.79-.577 1.55-.974 2.278h-3.434v2h2.112c-2.895 3.622-7.689 6-13.112 6s-10.216-2.378-13.112-6zm-.039 29.065-.487.975c-.151.301-.238.628-.295.959h-3.278c-.435.001-.789-.353-.789-.788v-.105c0-.301.167-.571.458-.717.951-.476 1.542-1.431 1.542-2.494 0-.873-.417-1.707-1.115-2.231l-1.563-1.172c-.828-.622-1.322-1.61-1.322-2.643v-1.546c0-.654.192-1.288.555-1.832.556-.835 1.458-1.341 2.445-1.433v.986c0 2.79.96 5.526 2.703 7.706.837 1.045 1.297 2.358 1.297 3.697 0 .22-.052.441-.151.638zm25.886-5.585c-1.119 1.399-1.735 3.156-1.735 4.947 0 .528.125 1.058.362 1.533l.487.974c.099.198.151.419.151.639 0 .787-.64 1.427-1.427 1.427h-.573v-2h-2v2h-1v-2h-2v2h-.171c-1.009 0-1.829-.82-1.829-1.829 0-.488.19-.947.536-1.293 1.589-1.588 2.464-3.702 2.464-5.949v-.342c0-.925.174-1.83.518-2.689.885-2.213 2.188-4.19 3.875-5.876l.314-.314-1.414-1.414-.314.314c-1.878 1.878-3.331 4.082-4.318 6.548-.439 1.096-.661 2.251-.661 3.431v.342c0 1.713-.667 3.324-1.878 4.536-.682.682-1.062 1.578-1.105 2.536h-2.033c-.043-.957-.423-1.854-1.105-2.536-1.212-1.212-1.879-2.823-1.879-4.536v-.342c0-1.18-.222-2.335-.661-3.431-.987-2.467-2.439-4.67-4.318-6.548l-.314-.314-1.414 1.414.314.314c1.686 1.686 2.989 3.663 3.875 5.876.344.859.518 1.764.518 2.689v.342c0 2.248.875 4.361 2.464 5.95.346.345.536.804.536 1.292 0 1.009-.82 1.829-1.829 1.829h-.171v-2h-2v2h-1v-2h-2v2h-.573c-.787 0-1.427-.64-1.427-1.427 0-.22.052-.441.151-.638l.487-.975c.237-.475.362-1.004.362-1.533 0-1.792-.616-3.548-1.735-4.947-1.461-1.826-2.265-4.119-2.265-6.456v-1.526c0-3.256 1.066-6.341 3.009-8.885l.024.03c2.032 2.541 4.849 4.338 7.988 5.145-.003.071-.021.139-.021.212 0 2.206 1.794 4 4 4s4-1.794 4-4c0-.073-.018-.141-.021-.212 3.139-.806 5.955-2.604 7.988-5.145l.024-.03c1.943 2.544 3.009 5.629 3.009 8.885v1.526c0 2.337-.804 4.63-2.265 6.456zm7.265-2.631c0 1.034-.494 2.021-1.321 2.642l-1.563 1.173c-.699.524-1.116 1.357-1.116 2.231 0 1.063.591 2.019 1.564 2.505.269.134.436.405.436.705v.105c0 .436-.354.79-.789.79h-3.278c-.057-.332-.144-.658-.295-.96l-.487-.974c-.099-.198-.151-.419-.151-.639 0-1.339.46-2.652 1.297-3.698 1.743-2.179 2.703-4.915 2.703-7.705v-.986c.987.092 1.889.598 2.445 1.433.363.544.555 1.178.555 1.832z"/><path d="m44 31c2.757 0 5-1.794 5-4h-2c0 1.084-1.374 2-3 2-1.243 0-2.334-.537-2.781-1.274 1.709-.783 2.781-3.095 2.781-4.726 0-1.991-1.346-3-4-3s-4 1.009-4 3c0 1.631 1.072 3.943 2.781 4.726-.447.737-1.538 1.274-2.781 1.274-1.626 0-3-.916-3-2h-2c0 2.206 2.243 4 5 4 1.641 0 3.088-.645 4-1.625.912.98 2.359 1.625 4 1.625zm-4-9c2 0 2 .531 2 1 0 1.239-1.034 3-2 3s-2-1.761-2-3c0-.469 0-1 2-1z"/><path d="m48 18c.551 0 1 .449 1 1h2c0-1.654-1.346-3-3-3s-3 1.346-3 3h2c0-.551.449-1 1-1z"/><path d="m32 18c.551 0 1 .449 1 1h2c0-1.654-1.346-3-3-3s-3 1.346-3 3h2c0-.551.449-1 1-1z"/></g></svg>