<svg width="48" height="60" viewBox="0 0 48 60" fill="none" xmlns="http://www.w3.org/2000/svg">
<path d="M15 4H13V6H15V4Z" fill="black"/>
<path d="M23 4H17V6H23V4Z" fill="black"/>
<path d="M21 54H19V56H21V54Z" fill="black"/>
<path d="M46.5 16.42C45.8101 16.0236 44.9912 15.9168 44.2228 16.123C43.4543 16.3292 42.7988 16.8315 42.4 17.52L40 21.68V6C40 4.4087 39.3679 2.88258 38.2426 1.75736C37.1174 0.632141 35.5913 0 34 0H6C4.4087 0 2.88258 0.632141 1.75736 1.75736C0.632141 2.88258 0 4.4087 0 6V54C0 55.5913 0.632141 57.1174 1.75736 58.2426C2.88258 59.3679 4.4087 60 6 60H34C35.5913 60 37.1174 59.3679 38.2426 58.2426C39.3679 57.1174 40 55.5913 40 54V33.68L47.6 20.52C47.994 19.8296 48.0994 19.0115 47.8934 18.2437C47.6875 17.4759 47.1867 16.8205 46.5 16.42V16.42ZM2 6C2 4.93913 2.42143 3.92172 3.17157 3.17157C3.92172 2.42143 4.93913 2 6 2H34C35.0609 2 36.0783 2.42143 36.8284 3.17157C37.5786 3.92172 38 4.93913 38 6V8H2V6ZM38 54C38 55.0609 37.5786 56.0783 36.8284 56.8284C36.0783 57.5786 35.0609 58 34 58H6C4.93913 58 3.92172 57.5786 3.17157 56.8284C2.42143 56.0783 2 55.0609 2 54V52H38V54ZM38 50H2V10H38V25.14L29.4 40.04C29.3211 40.1737 29.2764 40.3249 29.27 40.48L29 44.94C28.9896 45.1251 29.031 45.3095 29.1193 45.4725C29.2077 45.6355 29.3397 45.7707 29.5005 45.8631C29.6613 45.9554 29.8446 46.0012 30.0299 45.9954C30.2153 45.9895 30.3953 45.9323 30.55 45.83L34.28 43.37C34.4106 43.2861 34.5201 43.1732 34.6 43.04L38 37.14V50ZM32.98 41.83L31.12 43.06L31.25 40.83L42.63 21.12L44.37 22.12L32.98 41.83ZM45.87 19.52L45.37 20.38L43.63 19.38L44.13 18.52C44.2626 18.2893 44.4814 18.1207 44.7384 18.0513C44.9953 17.9819 45.2693 18.0174 45.5 18.15C45.7307 18.2826 45.8993 18.5014 45.9687 18.7584C46.0381 19.0153 46.0026 19.2893 45.87 19.52V19.52Z" fill="black"/>
<path d="M7 26H10.08C10.2639 27.2869 10.8026 28.4971 11.6355 29.4951C12.4685 30.4931 13.563 31.2394 14.7962 31.6504C16.0295 32.0615 17.3528 32.121 18.618 31.8223C19.8831 31.5236 21.0401 30.8785 21.9593 29.9593C22.8785 29.0401 23.5236 27.8831 23.8223 26.618C24.121 25.3528 24.0615 24.0295 23.6504 22.7962C23.2394 21.563 22.4931 20.4685 21.4951 19.6355C20.4971 18.8026 19.2869 18.2639 18 18.08V15C18 14.7348 17.8946 14.4804 17.7071 14.2929C17.5196 14.1054 17.2652 14 17 14H7C6.73478 14 6.48043 14.1054 6.29289 14.2929C6.10536 14.4804 6 14.7348 6 15V25C6 25.2652 6.10536 25.5196 6.29289 25.7071C6.48043 25.8946 6.73478 26 7 26ZM22 25C22.0012 26.24 21.5417 27.4361 20.7106 28.3563C19.8795 29.2765 18.7362 29.8551 17.5025 29.9797C16.2688 30.1043 15.0329 29.7661 14.0345 29.0307C13.0362 28.2953 12.3467 27.2152 12.1 26H17C17.2652 26 17.5196 25.8946 17.7071 25.7071C17.8946 25.5196 18 25.2652 18 25V20.1C19.1286 20.3321 20.1427 20.9462 20.8713 21.8387C21.5999 22.7313 21.9985 23.8478 22 25V25ZM12.1 24C12.2979 23.04 12.7727 22.159 13.4659 21.4659C14.159 20.7727 15.04 20.2979 16 20.1V24H12.1ZM8 16H16V18.08C14.5071 18.2971 13.1242 18.9906 12.0574 20.0574C10.9906 21.1242 10.2971 22.5071 10.08 24H8V16Z" fill="black"/>
<path d="M13 42.5C13 42.1022 13.158 41.7206 13.4393 41.4393C13.7206 41.158 14.1022 41 14.5 41H20.5C21.4283 41 22.3185 40.6312 22.9749 39.9749C23.6313 39.3185 24 38.4283 24 37.5C24 36.5717 23.6313 35.6815 22.9749 35.0251C22.3185 34.3688 21.4283 34 20.5 34H6V36H20.5C20.8978 36 21.2794 36.158 21.5607 36.4393C21.842 36.7206 22 37.1022 22 37.5C22 37.8978 21.842 38.2794 21.5607 38.5607C21.2794 38.842 20.8978 39 20.5 39H14.5C13.5717 39 12.6815 39.3688 12.0251 40.0251C11.3687 40.6815 11 41.5717 11 42.5C11 43.4283 11.3687 44.3185 12.0251 44.9749C12.6815 45.6312 13.5717 46 14.5 46H27V44H14.5C14.1022 44 13.7206 43.842 13.4393 43.5607C13.158 43.2794 13 42.8978 13 42.5Z" fill="black"/>
<path d="M28 24H26V26H28V24Z" fill="black"/>
<path d="M32 24H30V26H32V24Z" fill="black"/>
<path d="M28 20H26V22H28V20Z" fill="black"/>
<path d="M32 20H30V22H32V20Z" fill="black"/>
</svg>
