<svg width="48" height="57" viewBox="0 0 48 57" fill="none" xmlns="http://www.w3.org/2000/svg">
<path d="M24 56.625C24 50.0417 26.3333 44.3958 31 39.6875C35.6667 34.9792 41.3333 32.625 48 32.625C48 39.2917 45.6667 44.9583 41 49.625C36.3333 54.2917 30.6667 56.625 24 56.625ZM6.875 25.375C6.875 22.5417 8.16667 20.5417 10.75 19.375C8.16667 18.125 6.875 16.125 6.875 13.375C6.875 11.5417 7.54167 9.95833 8.875 8.625C10.2083 7.29167 11.7917 6.625 13.625 6.625C15.0417 6.625 16.2917 7.04167 17.375 7.875V7.375C17.375 5.54167 18.0208 3.95833 19.3125 2.625C20.6042 1.29167 22.1667 0.625 24 0.625C25.8333 0.625 27.3958 1.29167 28.6875 2.625C29.9792 3.95833 30.625 5.54167 30.625 7.375V7.875C31.7917 7.04167 33.0417 6.625 34.375 6.625C36.2083 6.625 37.7917 7.29167 39.125 8.625C40.4583 9.95833 41.125 11.5417 41.125 13.375C41.125 16.125 39.8333 18.125 37.25 19.375C39.8333 20.5417 41.125 22.5417 41.125 25.375C41.125 27.2083 40.4583 28.7708 39.125 30.0625C37.7917 31.3542 36.2083 32 34.375 32C32.9583 32 31.7083 31.625 30.625 30.875V31.375C30.625 33.2083 29.9792 34.7708 28.6875 36.0625C27.3958 37.3542 25.8333 38 24 38C22.1667 38 20.6042 37.3542 19.3125 36.0625C18.0208 34.7708 17.375 33.2083 17.375 31.375V30.875C16.2083 31.625 14.9583 32 13.625 32C11.7917 32 10.2083 31.3542 8.875 30.0625C7.54167 28.7708 6.875 27.2083 6.875 25.375ZM24 12.625C22.1667 12.625 20.6042 13.2917 19.3125 14.625C18.0208 15.9583 17.375 17.5417 17.375 19.375C17.375 21.2083 18.0208 22.7708 19.3125 24.0625C20.6042 25.3542 22.1667 26 24 26C25.8333 26 27.3958 25.3542 28.6875 24.0625C29.9792 22.7708 30.625 21.2083 30.625 19.375C30.625 17.5417 29.9792 15.9583 28.6875 14.625C27.3958 13.2917 25.8333 12.625 24 12.625ZM0 32.625C6.66667 32.625 12.3333 34.9792 17 39.6875C21.6667 44.3958 24 50.0417 24 56.625C17.3333 56.625 11.6667 54.2917 7 49.625C2.33333 44.9583 0 39.2917 0 32.625Z" fill="black"/>
</svg>
