<svg id="Capa_1" enable-background="new 0 0 496.977 496.977" height="512" viewBox="0 0 496.977 496.977" width="512" xmlns="http://www.w3.org/2000/svg"><g><g><path d="m372.884 243.204c0 86.122-69.816 155.938-155.938 155.938s-155.937-69.816-155.937-155.938c0-52.915 26.356-99.675 66.657-127.866 2.375-1.661 5.119.78 7.588-.749 2.269-1.406 4.256-6.793 6.601-8.084 6.119-3.369 12.489-6.338 19.074-8.874 2.59-.997 4.858.756 7.513-.105 2.278-.739 4.936-4.111 7.259-4.746 13.138-3.594 26.968-5.513 41.246-5.513 23.179 0 45.176 5.057 64.949 14.128 2.973 1.364 2.74 5.183 5.608 6.725 2.594 1.394 8.3.494 10.803 2.028 44.733 27.411 74.577 76.748 74.577 133.056z" fill="#ffbee4"/></g><g><path d="m302.652 112.91c16.209 24.593 25.642 54.047 25.642 85.704 0 86.122-69.816 155.938-155.938 155.938-31.657 0-61.117-9.441-85.709-25.65 27.887 42.311 75.834 70.24 130.299 70.24 86.122 0 155.938-69.816 155.938-155.938 0-54.465-27.92-102.407-70.232-130.294z" fill="#eaaadd"/></g><g fill="#eaaadd"><path d="m295.689 325.564c-81.238-37.128-137.91-111.916-151.596-200.058-.977-6.29-1.707-12.645-2.234-18.994-4.896 2.695-9.629 5.646-14.186 8.834.459 4.166.984 8.327 1.625 12.457 14.461 93.131 74.338 172.151 160.169 211.378 1.008.461 2.066.679 3.107.679 2.84 0 5.556-1.624 6.814-4.376 1.717-3.76.062-8.202-3.699-9.92z"/><path d="m263.363 347.479c-65.267-35.371-114.753-93.173-139.343-162.759-1.378-3.899-5.653-5.943-9.553-4.564-3.898 1.377-5.942 5.654-4.564 9.553 3.702 10.475 7.958 20.686 12.705 30.62-.001.001-.001.003-.002.004-10.574 23.002-18.331 47.234-23.053 72.023-.773 4.061 1.892 7.981 5.953 8.755.474.09.945.134 1.41.134 3.523 0 6.662-2.499 7.346-6.087 3.756-19.717 9.537-39.063 17.207-57.668 3.918 7.041 8.102 13.914 12.54 20.61-7.66 21.664-12.613 44.228-14.718 67.071-.38 4.117 2.65 7.763 6.767 8.142.234.021.466.032.696.032 3.825 0 7.088-2.917 7.446-6.8 1.663-18.043 5.209-35.901 10.55-53.236 26.857 35.701 61.317 65.568 101.48 87.333 1.134.615 2.355.906 3.56.906 2.658 0 5.234-1.419 6.589-3.921 1.969-3.634.618-8.178-3.016-10.148z"/><path d="m325.2 300.335c-43.272-16.156-79.874-44.653-106.045-80.865 20.049-28.688 46.58-52.667 77.048-69.542 3.616-2.003 4.925-6.559 2.921-10.176s-6.56-4.924-10.176-2.922c-30.78 17.048-57.777 40.905-78.697 69.379-3.774-6.066-7.27-12.314-10.474-18.726 26.243-33.354 60.127-59.926 98.527-77.33-5.272-3.23-10.751-6.154-16.412-8.751-34.101 17.175-64.48 41.322-89.051 70.845-2.772-6.735-5.227-13.624-7.359-20.645 11.98-13.354 25.183-25.68 39.321-36.646 3.267-2.534 3.861-7.237 1.327-10.504s-7.237-3.862-10.504-1.327c-12.275 9.521-23.879 20.018-34.644 31.29-1.036-4.693-1.933-9.435-2.677-14.222-1.409-9.069-2.278-18.277-2.603-27.402-5.03 1.376-9.958 2.996-14.771 4.85.442 8.295 1.302 16.627 2.579 24.85 13.57 87.388 73.519 160.909 156.452 191.872.863.322 1.747.475 2.617.475 3.035 0 5.891-1.859 7.015-4.87 1.446-3.875-.521-8.187-4.394-9.633z"/></g><g><path d="m442.571 4.979-19.08 12.174c-2.813 1.795-1.693 6.139 1.636 6.351l21.732 1.384c2.282.145 4.441 1.089 6.098 2.665 4.53 4.309 3.889 11.709-1.315 15.175l-58.802 39.157c-12.224 8.14-23.611 17.47-33.996 27.855l-82.805 82.805 33.804 33.804 172.21-172.21c12.385-12.385 12.385-32.465 0-44.85-10.52-10.52-26.94-12.313-39.482-4.31z" fill="#efecef"/></g><g><path d="m482.054 9.289c-1.9-1.9-3.996-3.504-6.223-4.828 4.651 11.456 2.331 25.079-6.961 34.371l-172.957 173.586 13.931 13.931 172.21-172.21c12.385-12.385 12.385-32.465 0-44.85z" fill="#e2dfe2"/></g><g><path d="m301.826 259.128 37.107-58.558c1.595-2.518 1.231-5.805-.876-7.913l-28.103-28.103c-2.108-2.108-5.395-2.472-7.913-.876l-58.558 37.107c-22.085 13.995-40.796 32.707-54.791 54.791l-25.606 40.409c-8.398 13.253-18.234 25.538-29.328 36.633l-120.619 120.62c-10.006 10.006-10.006 26.229 0 36.235 10.006 10.006 26.229 10.006 36.235 0l120.619-120.619c11.094-11.094 23.38-20.93 36.633-29.328l40.409-25.606c22.085-13.996 40.796-32.708 54.791-54.792z" fill="#617881"/></g><g><path d="m338.057 192.658-11.353-11.353c.117 1.353-.186 2.745-.955 3.959l-37.107 58.558c-13.995 22.085-32.707 40.796-54.791 54.791l-40.409 25.606c-13.253 8.398-25.538 18.234-36.633 29.328l-120.618 120.619c-7.945 7.945-19.8 9.557-29.36 4.885 1.197 3.811 3.289 7.402 6.309 10.422 10.006 10.006 26.229 10.006 36.235 0l120.619-120.619c11.094-11.095 23.38-20.93 36.633-29.328l40.409-25.606c22.085-13.995 40.796-32.706 54.791-54.791l37.107-58.558c1.595-2.518 1.231-5.806-.877-7.913z" fill="#475959"/></g></g></svg>