<svg width="184" height="193" viewBox="0 0 184 193" fill="none" xmlns="http://www.w3.org/2000/svg">
<path d="M63 63C93.5202 74.3274 160.049 115.986 182 192" stroke="#1C7D1C" stroke-width="0.9"/>
<path d="M69 20C69 52.5 77 68 77 68V32.5C77 20 69 -12.5 69 20Z" fill="#BED3AB"/>
<path d="M56 14.0204C56 46.5204 64 62.0204 64 62.0204V26.5204C64 14.0204 56 -18.4796 56 14.0204Z" fill="#02894B"/>
<path d="M14.7087 57.7766C46.4862 54.5424 62.6493 62.9009 62.6493 62.9009L27.9385 66.4336C15.7164 67.6775 -17.0688 61.0107 14.7087 57.7766Z" fill="#02894B" stroke="#02894B"/>
<path d="M113.608 45.9556C110.488 78.3055 116.963 94.5019 116.963 94.5019L120.371 59.1659C121.572 46.7237 116.729 13.6057 113.608 45.9556Z" fill="#02894B"/>
<path d="M129.159 52.5631C120.926 84.0031 124.739 101.024 124.739 101.024L133.732 66.6819C136.898 54.5896 137.391 21.1231 129.159 52.5631Z" fill="#BED3AB"/>
<path d="M147.054 70.8111C134.153 95.8717 135.732 111.804 135.732 111.804L149.824 84.4303C154.786 74.7916 159.955 45.7504 147.054 70.8111Z" fill="#02894B"/>
<path d="M151.636 94.1694C143.08 110.789 144.128 121.354 144.128 121.354L153.473 103.201C156.763 96.8092 160.191 77.5503 151.636 94.1694Z" fill="#BED3AB"/>
<path d="M162.531 113.975C155.401 127.826 155.735 136.354 155.735 136.354L163.523 121.225C166.266 115.898 169.661 100.124 162.531 113.975Z" fill="#02894B"/>
<path d="M169.998 134.538C164.583 145.058 165.739 152 165.739 152L171.654 140.509C173.737 136.463 175.414 124.018 169.998 134.538Z" fill="#BED3AB"/>
<path d="M176.427 148.214C171.398 157.981 172.33 164.354 172.33 164.354L177.823 153.685C179.757 149.928 181.455 138.446 176.427 148.214Z" fill="#02894B"/>
<path d="M155.006 166.183C163.443 159.306 165 153 165 153L155.785 160.512C152.54 163.157 146.57 173.06 155.006 166.183Z" fill="#BED3AB"/>
<path d="M161.04 178.155C169.555 171.214 171.25 165 171.25 165L161.948 172.582C158.673 175.252 152.525 185.097 161.04 178.155Z" fill="#02894B"/>
<path d="M139.832 155.218C151.622 145.035 154.499 137 154.499 137L141.621 148.122C137.086 152.039 128.042 165.4 139.832 155.218Z" fill="#02894B"/>
<path d="M129.662 147.5C142.046 133.498 143.632 123 143.632 123L130.105 138.294C125.342 143.679 117.278 161.501 129.662 147.5Z" fill="#BED3AB"/>
<path d="M99.2259 32.8606C94.3334 64.9902 99.9088 81.5179 99.9088 81.5179L105.253 46.4225C107.135 34.0649 104.118 0.730974 99.2259 32.8606Z" fill="#BED3AB"/>
<path d="M85.7476 25.9516C82.5331 58.2923 88.9608 74.5075 88.9608 74.5075L92.472 39.1816C93.7084 26.7429 88.9621 -6.38901 85.7476 25.9516Z" fill="#02894B"/>
<path d="M42.6949 96.0663C73.906 87.0045 86.5607 75 86.5607 75L52.4686 84.8983C40.4643 88.3836 11.4838 105.128 42.6949 96.0663Z" fill="#02894B"/>
<path d="M76 70C59.3819 68.6092 25.0601 67.9454 20.7171 76.417C16.3741 84.8885 55.7628 75.6688 76 70Z" fill="#BED3AB"/>
<path d="M115.715 96C99.4849 101.519 66.8726 115.009 66.2607 124.821C65.6488 134.634 98.975 109.696 115.715 96Z" fill="#02894B"/>
<path d="M124.98 104C109.2 110.696 77.6667 126.547 77.7776 136.377C77.8884 146.208 109.292 118.889 124.98 104Z" fill="#BED3AB"/>
<path d="M135 113C122.733 120.895 98.6108 138.902 100.257 147.775C101.904 156.647 124.105 128.288 135 113Z" fill="#02894B"/>
<path d="M99.276 83C82.5465 86.7392 48.6713 96.6398 47.0065 106.329C45.3417 116.019 81.1592 94.8137 99.276 83Z" fill="#BED3AB"/>
<path d="M180.667 192C180.678 192.304 182.196 191.924 182 191.588L180 185C180.891 188.262 180.655 191.696 180.667 192Z" fill="#1C7D1C" stroke="#1C7D1C" stroke-width="0.3"/>
<path d="M183.072 191.308C183.234 191.573 181.767 192.084 181.739 191.691L179.665 185C180.774 188.259 182.909 191.043 183.072 191.308Z" fill="#1C7D1C" stroke="#1C7D1C" stroke-width="0.3"/>
</svg>
