<svg width="14" height="12" viewBox="0 0 14 12" fill="none" xmlns="http://www.w3.org/2000/svg">
<path d="M12.817 11.0003L7.895 0.552758C7.8115 0.38577 7.68292 0.245493 7.52381 0.147806C7.36471 0.0501193 7.18143 -0.00107558 6.99473 1.71334e-05C6.80804 0.00110985 6.62537 0.0544465 6.46742 0.153989C6.30947 0.253532 6.18254 0.395304 6.101 0.563258L1.183 11.0003H0V12.0003H14V11.0003H12.817ZM6.995 0.989758L9.4735 6.25026L8.5 6.89926L7 5.89926L5.5 6.89926L4.5225 6.24776L6.995 0.989758ZM4.0925 7.16276L5.5 8.10126L7 7.10126L8.5 8.10126L9.905 7.16476L11.711 11.0003H2.2875L4.0925 7.16276Z" fill="black"/>
</svg>
