<svg width="9" height="14" viewBox="0 0 9 14" fill="none" xmlns="http://www.w3.org/2000/svg">
<path d="M5 11.7794C5 12.8844 3.88 13.7794 2.5 13.7794C1.12 13.7794 0 12.8844 0 11.7794C0 10.6744 1.12 9.7794 2.5 9.7794C3.88 9.7794 5 10.6744 5 11.7794Z" fill="black"/>
<path fill-rule="evenodd" clip-rule="evenodd" d="M5 1.7794V11.7794H4V1.7794H5Z" fill="black"/>
<path d="M4 1.5994C4.00014 1.3683 4.08031 1.14439 4.22689 0.965732C4.37346 0.787071 4.57739 0.66469 4.804 0.619396L7.804 0.0193962C7.94902 -0.00959053 8.09867 -0.00604981 8.24216 0.0297633C8.38565 0.0655765 8.51941 0.13277 8.6338 0.226504C8.74819 0.320238 8.84037 0.438177 8.9037 0.571826C8.96702 0.705475 8.99991 0.851505 9 0.999396V2.7794L4 3.7794V1.5994Z" fill="black"/>
</svg>
