<svg xmlns="http://www.w3.org/2000/svg" xmlns:xlink="http://www.w3.org/1999/xlink" version="1.1" x="0px" y="0px" viewBox="0 0 32 40" style="enable-background:new 0 0 32 32;" xml:space="preserve"><path d="M8.5,12h-1c0,4.518,3.546,8.214,8,8.475V24.5H14c-2.481,0-4.5,2.019-4.5,4.5c0,0.276,0.224,0.5,0.5,0.5h12  c0.276,0,0.5-0.224,0.5-0.5c0-2.481-2.019-4.5-4.5-4.5h-1.5v-4.025c4.453-0.261,8-3.956,8-8.475h-1c0,4.136-3.364,7.5-7.5,7.5  S8.5,16.136,8.5,12z M21.465,28.5H10.536c0.243-1.694,1.704-3,3.464-3h4C19.76,25.5,21.221,26.806,21.465,28.5z"/><path d="M20.5,12V7c0-2.481-2.019-4.5-4.5-4.5S11.5,4.519,11.5,7v5c0,2.481,2.019,4.5,4.5,4.5S20.5,14.481,20.5,12z M12.5,12V7  c0-1.93,1.57-3.5,3.5-3.5s3.5,1.57,3.5,3.5v5c0,1.93-1.57,3.5-3.5,3.5S12.5,13.93,12.5,12z"/><text x="0" y="47" fill="#000000" font-size="5px" font-weight="bold" font-family="'Helvetica Neue', Helvetica, Arial-Unicode, Arial, Sans-serif">Created by Astatine Lab</text><text x="0" y="52" fill="#000000" font-size="5px" font-weight="bold" font-family="'Helvetica Neue', Helvetica, Arial-Unicode, Arial, Sans-serif">from the Noun Project</text></svg>