<svg width="16" height="16" viewBox="0 0 16 16" fill="none" xmlns="http://www.w3.org/2000/svg">
<path d="M15.0697 5.5C14.7424 4.5777 14.2376 3.72839 13.584 3C12.21 1.46675 10.2157 0.5 8 0.5C5.784 0.5 3.79 1.46675 2.416 3C1.76235 3.72839 1.25761 4.5777 0.93025 5.5C0.6525 6.28225 0.5 7.1235 0.5 8C0.5 8.8765 0.65225 9.71775 0.93 10.5C1.25747 11.4222 1.76211 12.2715 2.4155 13C3.78975 14.5332 5.78375 15.5 8 15.5C10.216 15.5 12.21 14.5332 13.5845 13C14.2378 12.2713 14.7425 11.4221 15.0702 10.5C15.3477 9.71775 15.5 8.8765 15.5 8C15.5 7.1235 15.3477 6.28225 15.0697 5.5V5.5ZM1.90625 8C1.90625 7.1085 2.10425 6.26375 2.45 5.5C2.90593 4.49413 3.62541 3.6303 4.53225 3C5.336 2.441 6.277 2.066 7.297 1.94825V7.6495L3.19925 11.7465C2.89913 11.3625 2.64592 10.944 2.445 10.5C2.08919 9.71462 1.9055 8.86222 1.90625 8V8ZM7.297 14.0522C6.15748 13.9206 5.07871 13.4683 4.186 12.748L7.29675 9.63775V14.0522H7.297ZM8.70325 14.0522V9.63775L11.8135 12.748C10.921 13.4682 9.8425 13.9205 8.70325 14.0522V14.0522ZM12.8007 11.7465L8.70325 7.6495V1.94825C9.72325 2.066 10.6637 2.441 11.4675 3C12.3745 3.63028 13.0941 4.49411 13.5503 5.5C13.9076 6.28486 14.0929 7.13711 14.0937 7.99951C14.0945 8.86191 13.9107 9.71449 13.5548 10.5C13.3539 10.944 13.1008 11.3625 12.8007 11.7465" fill="black"/>
</svg>
