<svg width="55" height="60" viewBox="0 0 55 60" fill="none" xmlns="http://www.w3.org/2000/svg">
<path d="M43.8804 33.5L27.8804 5.50003C27.7856 5.35645 27.6567 5.23862 27.5052 5.1571C27.3537 5.07557 27.1844 5.0329 27.0124 5.0329C26.8403 5.0329 26.671 5.07557 26.5195 5.1571C26.368 5.23862 26.2391 5.35645 26.1444 5.50003L10.1444 33.5C10.0508 33.6638 10.0055 33.8507 10.0136 34.0392C10.0218 34.2276 10.083 34.4099 10.1904 34.565L18.1684 46.09C17.2868 46.276 16.4942 46.7551 15.9196 47.4491C15.3451 48.1431 15.0225 49.0113 15.0044 49.9121C14.9863 50.8129 15.2738 51.6932 15.82 52.4098C16.3662 53.1263 17.139 53.6368 18.0124 53.858V59C18.0124 59.2652 18.1177 59.5196 18.3053 59.7071C18.4928 59.8947 18.7471 60 19.0124 60H35.0124C35.2776 60 35.5319 59.8947 35.7195 59.7071C35.907 59.5196 36.0124 59.2652 36.0124 59V53.858C36.8838 53.6352 37.6543 53.1244 38.1988 52.4084C38.7433 51.6925 39.0298 50.8135 39.0117 49.9142C38.9937 49.0149 38.6721 48.1481 38.0993 47.4546C37.5265 46.7611 36.7361 46.2817 35.8564 46.094L43.8344 34.569C43.9425 34.4135 44.0042 34.2304 44.0124 34.0412C44.0205 33.8519 43.9747 33.6643 43.8804 33.5ZM20.0124 58V54H34.0124V58H20.0124ZM37.0124 50C37.0124 50.5305 36.8017 51.0392 36.4266 51.4142C36.0515 51.7893 35.5428 52 35.0124 52H19.0124C18.4819 52 17.9732 51.7893 17.5982 51.4142C17.2231 51.0392 17.0124 50.5305 17.0124 50C17.0124 49.4696 17.2231 48.9609 17.5982 48.5858C17.9732 48.2107 18.4819 48 19.0124 48H35.0124C35.5428 48 36.0515 48.2107 36.4266 48.5858C36.8017 48.9609 37.0124 49.4696 37.0124 50ZM29.2584 26.813C29.9256 27.3661 30.364 28.1472 30.4885 29.0049C30.613 29.8626 30.4148 30.736 29.9324 31.456L28.1804 34.085C28.0708 34.2494 28.0123 34.4425 28.0124 34.64V36.64H26.0124V34.64C26.0124 34.4425 25.954 34.2494 25.8444 34.085L24.0924 31.456C23.6239 30.7543 23.424 29.9073 23.5292 29.0702C23.6344 28.2331 24.0377 27.4619 24.6652 26.8979C25.2927 26.334 26.1024 26.015 26.946 25.9994C27.7895 25.9838 28.6104 26.2726 29.2584 26.813ZM25.5124 39.64C25.3798 39.64 25.2526 39.5874 25.1588 39.4936C25.065 39.3998 25.0124 39.2726 25.0124 39.14C25.0124 39.0074 25.065 38.8802 25.1588 38.7865C25.2526 38.6927 25.3798 38.64 25.5124 38.64H28.5124C28.645 38.64 28.7722 38.6927 28.8659 38.7865C28.9597 38.8802 29.0124 39.0074 29.0124 39.14C29.0124 39.2726 28.9597 39.3998 28.8659 39.4936C28.7722 39.5874 28.645 39.64 28.5124 39.64H25.5124ZM26.0124 41.64H28.0124V46H26.0124V41.64ZM33.4884 46H30.0124V41.281C30.0069 41.2364 29.9979 41.1922 29.9854 41.149C30.3016 40.9212 30.5597 40.622 30.7385 40.2756C30.9174 39.9293 31.0119 39.5457 31.0146 39.1559C31.0172 38.7661 30.9278 38.3812 30.7537 38.0325C30.5795 37.6838 30.3255 37.3811 30.0124 37.149V34.939L30.4124 34.339L32.5464 35.452C32.663 35.515 32.791 35.5542 32.9228 35.5674C33.0547 35.5805 33.1879 35.5672 33.3147 35.5284C33.4414 35.4896 33.5591 35.4259 33.6611 35.3412C33.763 35.2565 33.847 35.1523 33.9084 35.0348C33.9697 34.9173 34.007 34.7888 34.0182 34.6567C34.0294 34.5246 34.0142 34.3916 33.9735 34.2655C33.9329 34.1393 33.8675 34.0225 33.7813 33.9218C33.6951 33.8212 33.5898 33.7386 33.4714 33.679L31.5274 32.665L31.5934 32.565C32.3903 31.3675 32.6842 29.9044 32.4114 28.492L34.4824 27.381C34.7131 27.254 34.8844 27.0411 34.9591 26.7885C35.0338 26.5359 35.0058 26.264 34.8812 26.032C34.7566 25.7999 34.5455 25.6264 34.2937 25.549C34.0419 25.4717 33.7697 25.4969 33.5364 25.619L31.6794 26.619C31.2818 25.9582 30.7466 25.3907 30.1103 24.955C29.4739 24.5193 28.7513 24.2257 27.9914 24.094C28 24.0631 28.007 24.0317 28.0124 24V21C28.0124 20.7348 27.907 20.4805 27.7195 20.2929C27.5319 20.1054 27.2776 20 27.0124 20C26.7471 20 26.4928 20.1054 26.3053 20.2929C26.1177 20.4805 26.0124 20.7348 26.0124 21V24C26.0168 24.0306 26.0228 24.061 26.0304 24.091C25.2705 24.2227 24.5478 24.5163 23.9115 24.952C23.2751 25.3877 22.74 25.9552 22.3424 26.616L20.4854 25.616C20.3695 25.5523 20.2422 25.5121 20.1108 25.4979C19.9794 25.4836 19.8464 25.4956 19.7196 25.5331C19.5929 25.5706 19.4748 25.6328 19.3722 25.7162C19.2696 25.7996 19.1846 25.9026 19.1221 26.019C19.0595 26.1355 19.0207 26.2632 19.0079 26.3948C18.995 26.5264 19.0084 26.6592 19.0472 26.7856C19.086 26.912 19.1495 27.0294 19.2339 27.1311C19.3184 27.2328 19.4222 27.3167 19.5394 27.378L21.6124 28.493C21.3395 29.9051 21.6334 31.3679 22.4304 32.565L22.4954 32.665L20.5514 33.679C20.3163 33.8018 20.1395 34.013 20.0601 34.2661C19.9807 34.5192 20.0051 34.7934 20.1279 35.0285C20.2507 35.2636 20.4618 35.4403 20.7149 35.5198C20.968 35.5992 21.2423 35.5748 21.4774 35.452L23.6124 34.338L24.0124 34.938V37.148C23.7007 37.3794 23.4478 37.6807 23.2741 38.0278C23.1003 38.3749 23.0106 38.7579 23.0122 39.1461C23.0137 39.5342 23.1065 39.9165 23.283 40.2622C23.4596 40.6079 23.7149 40.9072 24.0284 41.136C24.0284 41.164 24.0124 41.187 24.0124 41.215V46H20.5364L12.1934 33.949L27.0124 8.01603L41.8314 33.949L33.4884 46Z" fill="black"/>
<path d="M51.0124 6.00001C51.5629 6.00229 52.1035 5.85304 52.5748 5.5686C53.0462 5.28417 53.4302 4.87552 53.6848 4.3874C53.9394 3.89929 54.0547 3.35053 54.0182 2.80122C53.9818 2.2519 53.7948 1.72322 53.4779 1.27307C53.161 0.822908 52.7263 0.468633 52.2215 0.249035C51.7167 0.0294373 51.1612 -0.0470146 50.6158 0.0280511C50.0704 0.103117 49.5562 0.326806 49.1295 0.674622C48.7027 1.02244 48.3799 1.48097 48.1964 2.00001H5.82843C5.59253 1.33279 5.12836 0.770452 4.51795 0.412375C3.90754 0.0542975 3.19019 -0.0764608 2.49269 0.0432105C1.7952 0.162882 1.16246 0.525277 0.706322 1.06635C0.25018 1.60741 0 2.29232 0 3.00001C0 3.70769 0.25018 4.3926 0.706322 4.93367C1.16246 5.47474 1.7952 5.83713 2.49269 5.9568C3.19019 6.07647 3.90754 5.94571 4.51795 5.58764C5.12836 5.22956 5.59253 4.66722 5.82843 4.00001H22.1344C17.3416 6.40695 13.1009 9.78299 9.68093 13.9143C6.2609 18.0456 3.7361 22.8421 2.26643 28H1.01243C0.747211 28 0.492857 28.1054 0.305321 28.2929C0.117784 28.4804 0.0124273 28.7348 0.0124273 29V33C0.0124273 33.2652 0.117784 33.5196 0.305321 33.7071C0.492857 33.8947 0.747211 34 1.01243 34H5.01243C5.27764 34 5.532 33.8947 5.71953 33.7071C5.90707 33.5196 6.01243 33.2652 6.01243 33V29C6.01243 28.7348 5.90707 28.4804 5.71953 28.2929C5.532 28.1054 5.27764 28 5.01243 28H4.35043C5.99161 22.559 8.87261 17.573 12.7669 13.4339C16.6611 9.29478 21.4625 6.11549 26.7934 4.14601L27.0124 4.06601L27.2314 4.14601C32.5623 6.11549 37.3637 9.29478 41.258 13.4339C45.1522 17.573 48.0332 22.559 49.6744 28H49.0124C48.7472 28 48.4929 28.1054 48.3053 28.2929C48.1178 28.4804 48.0124 28.7348 48.0124 29V33C48.0124 33.2652 48.1178 33.5196 48.3053 33.7071C48.4929 33.8947 48.7472 34 49.0124 34H53.0124C53.2776 34 53.532 33.8947 53.7195 33.7071C53.9071 33.5196 54.0124 33.2652 54.0124 33V29C54.0124 28.7348 53.9071 28.4804 53.7195 28.2929C53.532 28.1054 53.2776 28 53.0124 28H51.7584C50.2888 22.8421 47.764 18.0456 44.3439 13.9143C40.9239 9.78299 36.6832 6.40695 31.8904 4.00001H48.1964C48.4025 4.58291 48.7837 5.08791 49.2877 5.44592C49.7918 5.80392 50.3942 5.99744 51.0124 6.00001ZM4.01243 32H2.01243V30H4.01243V32ZM52.0124 32H50.0124V30H52.0124V32ZM51.0124 2.00001C51.2102 2.00001 51.4035 2.05866 51.568 2.16854C51.7324 2.27842 51.8606 2.4346 51.9363 2.61732C52.012 2.80005 52.0318 3.00112 51.9932 3.1951C51.9546 3.38908 51.8594 3.56726 51.7195 3.70711C51.5797 3.84697 51.4015 3.94221 51.2075 3.98079C51.0135 4.01938 50.8125 3.99957 50.6297 3.92389C50.447 3.8482 50.2908 3.72003 50.181 3.55558C50.0711 3.39113 50.0124 3.19779 50.0124 3.00001C50.0124 2.73479 50.1178 2.48044 50.3053 2.2929C50.4929 2.10536 50.7472 2.00001 51.0124 2.00001ZM3.01243 4.00001C2.81465 4.00001 2.62131 3.94136 2.45686 3.83148C2.29241 3.72159 2.16424 3.56542 2.08855 3.38269C2.01286 3.19996 1.99306 2.9989 2.03164 2.80492C2.07023 2.61093 2.16547 2.43275 2.30532 2.2929C2.44517 2.15305 2.62336 2.05781 2.81734 2.01922C3.01132 1.98064 3.21238 2.00044 3.39511 2.07613C3.57784 2.15181 3.73402 2.27999 3.8439 2.44444C3.95378 2.60889 4.01243 2.80222 4.01243 3.00001C4.01243 3.26522 3.90707 3.51958 3.71953 3.70711C3.532 3.89465 3.27764 4.00001 3.01243 4.00001Z" fill="black"/>
</svg>
