<svg width="65" height="95" viewBox="0 0 65 95" fill="none" xmlns="http://www.w3.org/2000/svg">
<path d="M64.4153 12.352C64.0153 10.852 63.1153 9.65203 61.9153 8.95203L48.3153 0.752026C45.7153 -0.747974 42.2153 0.0520256 40.6153 2.65203L2.21531 66.252C2.11531 66.552 2.01531 66.752 1.91531 67.052L0.0153144 92.852C-0.0846856 93.552 0.315314 94.252 0.915314 94.552C1.31531 94.852 1.81531 94.852 2.31531 94.752C2.51531 94.752 2.71531 94.652 2.81531 94.552L24.7153 80.752C24.9153 80.552 25.2153 80.352 25.3153 80.152L63.7153 16.452C64.6153 15.352 64.8153 13.852 64.4153 12.352ZM36.3153 16.952L39.8153 19.052L9.91531 68.552L6.41531 66.452L36.3153 16.952ZM43.0153 20.952L46.5153 23.052L16.6153 72.652L13.1153 70.552L43.0153 20.952ZM8.81531 86.552L4.51531 83.952L5.51531 70.252L20.4153 79.252L8.81531 86.552ZM23.2153 76.652L19.7153 74.552L49.5153 25.052L53.0153 27.152L23.2153 76.652ZM55.0153 23.952L38.2153 13.752L40.5153 9.95203L57.3153 20.052L55.0153 23.952ZM60.6153 14.652L59.3153 16.852L42.4153 6.75203L43.7153 4.55203C44.3153 3.65203 45.5153 3.35203 46.3153 3.95203L59.9153 12.152C60.8153 12.652 61.1153 13.752 60.6153 14.652Z" fill="black"/>
</svg>
