<svg id="Layer_3" enable-background="new 0 0 64 64" height="512" viewBox="0 0 64 64" width="512" xmlns="http://www.w3.org/2000/svg"><g><path d="m37 7h2v4h-2z"/><path d="m29 7h2v4h-2z"/><path d="m26 20h2v2h-2z"/><path d="m28 24h2v2h-2z"/><path d="m40 20h2v2h-2z"/><path d="m38 24h2v2h-2z"/><path d="m54.109 44.361c-.943-1.414-2.494-2.274-4.182-2.347-.316-3.602-1.786-6.956-4.216-9.655.707-.488 1.377-1.034 1.995-1.652.391-.391.391-1.023 0-1.414l-2.412-2.412c.452-1.037.706-2.18.706-3.381 0-2.475-1.096-4.754-2.872-6.337l4.831-6.442c.671-.894 1.041-2.003 1.041-3.122 0-1.984-1.103-3.768-2.877-4.655l-3.676-1.838c-.321-.16-.704-.137-1.002.062l-2.089 1.393c-1.564-.993-3.408-1.561-5.356-1.561s-3.792.568-5.356 1.561l-2.089-1.393c-.299-.2-.682-.223-1.002-.062l-3.676 1.838c-1.774.887-2.877 2.671-2.877 4.655 0 1.119.37 2.228 1.041 3.123l4.831 6.442c-1.776 1.582-2.872 3.861-2.872 6.336 0 1.201.254 2.344.705 3.381l-2.412 2.412c-.391.391-.391 1.023 0 1.414.618.618 1.288 1.164 1.995 1.652-2.158 2.397-3.55 5.311-4.056 8.458l-.01-.01c-2.078-2.077-3.222-4.839-3.222-7.778v-.196c0-1.7.401-3.4 1.162-4.919l2.733-5.466c.219-.439.088-.972-.31-1.258-.397-.288-.946-.244-1.292.104l-4.192 4.192c-2.645 2.643-4.101 6.159-4.101 9.899v.163c0 2.432.638 4.834 1.845 6.946l2.238 3.916c-.05.294-.083.591-.083.893v1.546c0 1.66.793 3.246 2.121 4.243l1.563 1.172c.198.148.316.383.316.631 0 .301-.167.571-.458.717-.951.475-1.542 1.43-1.542 2.493v.105c0 1.539 1.251 2.79 2.789 2.79h3.532c.543 1.177 1.727 2 3.106 2h5.744c2.112 0 3.829-1.717 3.829-3.829 0-1.022-.398-1.984-1.122-2.707-1.211-1.211-1.878-2.822-1.878-4.535v-.342c0-1.18-.222-2.335-.661-3.431-.987-2.467-2.439-4.67-4.318-6.548l-.314-.314-1.414 1.414.314.314c1.686 1.686 2.989 3.663 3.875 5.876.344.859.518 1.764.518 2.689v.342c0 2.248.875 4.361 2.464 5.95.346.345.536.804.536 1.292 0 1.009-.82 1.829-1.829 1.829h-5.744c-.787 0-1.427-.64-1.427-1.427 0-.22.052-.441.151-.638l.487-.975c.237-.475.362-1.004.362-1.533 0-1.792-.616-3.548-1.735-4.947-1.461-1.826-2.265-4.119-2.265-6.456v-1.526c0-3.794 1.44-7.361 4.044-10.101 1.244.616 2.578 1.054 3.976 1.287l1.067.178c.411 2.346 2.451 4.138 4.913 4.138s4.502-1.792 4.913-4.138l1.067-.178c1.398-.233 2.732-.672 3.976-1.287 2.604 2.739 4.044 6.306 4.044 10.101v1.526c0 2.337-.804 4.63-2.265 6.456-1.119 1.399-1.735 3.156-1.735 4.947 0 .528.125 1.058.362 1.533l.487.974c.099.198.151.419.151.639 0 .787-.64 1.427-1.427 1.427h-5.744c-1.009 0-1.829-.82-1.829-1.829 0-.488.19-.947.536-1.293 1.589-1.588 2.464-3.702 2.464-5.949v-.342c0-.925.174-1.83.518-2.689.885-2.213 2.188-4.19 3.875-5.876l.314-.314-1.414-1.414-.314.314c-1.878 1.878-3.331 4.082-4.318 6.548-.439 1.096-.661 2.251-.661 3.431v.342c0 1.713-.667 3.324-1.878 4.536-.724.723-1.122 1.684-1.122 2.706 0 2.112 1.717 3.829 3.829 3.829h5.744c1.379 0 2.563-.823 3.106-2h3.532c1.538 0 2.789-1.251 2.789-2.789v-.105c0-1.063-.591-2.019-1.564-2.505-.269-.135-.436-.406-.436-.706 0-.247.118-.483.315-.631l1.563-1.173c1.329-.997 2.122-2.583 2.122-4.242v-1.546c0-1.05-.308-2.067-.891-2.942zm-43.109-8.813v-.163c0-3.125 1.187-6.068 3.347-8.314-.881 1.782-1.347 3.773-1.347 5.762v.196c0 3.473 1.352 6.737 3.808 9.192l.001.001c-1.083.318-2.04.975-2.733 1.895l-1.495-2.616c-1.034-1.81-1.581-3.868-1.581-5.953zm9.703 17.182c.837 1.045 1.297 2.358 1.297 3.697 0 .22-.052.441-.151.638l-.487.975c-.151.301-.238.628-.295.959h-3.278c-.435.001-.789-.353-.789-.788v-.105c0-.301.167-.571.458-.717.951-.476 1.542-1.431 1.542-2.494 0-.873-.417-1.707-1.115-2.231l-1.563-1.172c-.828-.622-1.322-1.61-1.322-2.643v-1.546c0-.654.192-1.288.555-1.832.556-.835 1.458-1.341 2.445-1.433v.986c0 2.79.96 5.526 2.703 7.706zm14.297-49.66c3.139.396 5.791 2.622 6.682 5.706l-.352 4.224h-3.33c-1.654 0-3-1.346-3-3zm9 1.048 1.229.614c1.092.547 1.771 1.645 1.771 2.867 0 .689-.228 1.372-.641 1.922l-3.075 4.1.716-8.621zm-2-.916.003 1.715-.007.089c-.304-.405-.638-.784-.997-1.136zm-16 0 1.001.668c-.361.354-.695.734-1 1.14l-.001-.01zm-4.359 6.319c-.413-.551-.641-1.233-.641-1.922 0-1.222.679-2.32 1.771-2.866l1.23-.615.001.966.711 8.537zm6.692 7.849-.667-1.886c-.265.094-.51.221-.761.339l-.589-7.042c.89-3.087 3.544-5.316 6.684-5.711v6.93c0 2.757 2.243 5 5 5h3.163l-.068.822c-.251-.118-.496-.245-.761-.338l-.667 1.886c2.592.916 4.333 3.38 4.333 6.13 0 3.584-2.916 6.5-6.5 6.5-.871 0-1.708-.178-2.5-.511v-2.774c1.228-.669 2-2.442 2-3.715 0-.596-.179-1.076-.531-1.425-.593-.588-1.417-.582-2.212-.576l-.257.001-.256-.001c-.796-.009-1.62-.013-2.212.576-.353.349-.532.829-.532 1.425 0 1.273.772 3.046 2 3.715v2.774c-.792.333-1.629.511-2.5.511-3.584 0-6.5-2.916-6.5-6.5 0-2.75 1.741-5.214 4.333-6.13zm4.667 5.647c.189-.023.502-.021.728-.019l.272.002.272-.001c.225-.002.54-.004.728.019-.009.819-.682 1.939-.997 1.983-.321-.044-.994-1.165-1.003-1.984zm-10.557 6.955 1.315-1.316c1.265 1.65 3.115 2.822 5.242 3.203v.96l-.65-.108c-2.201-.367-4.224-1.308-5.907-2.739zm11.557 7.028c-1.654 0-3-1.346-3-3v-2.027c.679-.041 1.351-.158 2-.358v3.385h2v-3.385c.649.2 1.321.318 2 .358v2.027c0 1.654-1.346 3-3 3zm5.65-4.289-.65.108v-.96c2.127-.381 3.977-1.553 5.242-3.203l1.315 1.316c-1.683 1.431-3.706 2.372-5.907 2.739zm13.35 16.138c0 1.034-.494 2.021-1.321 2.642l-1.563 1.173c-.699.524-1.116 1.357-1.116 2.231 0 1.063.591 2.019 1.564 2.505.269.134.436.405.436.705v.105c0 .436-.354.79-.789.79h-3.278c-.057-.332-.144-.658-.295-.96l-.487-.974c-.099-.198-.151-.419-.151-.639 0-1.339.46-2.652 1.297-3.698 1.743-2.179 2.703-4.915 2.703-7.705v-.986c.987.092 1.889.598 2.445 1.433.363.544.555 1.178.555 1.832z"/></g></svg>