<svg width="303" height="113" viewBox="0 0 303 113" fill="none" xmlns="http://www.w3.org/2000/svg">
<path d="M8.49683 39.5582H1.15866C1.12647 41.6825 1.51269 43.517 2.31732 45.0619C3.12194 46.6068 4.20014 47.8781 5.55191 48.8758C6.93586 49.8735 8.51293 50.5977 10.2831 51.0483C12.0855 51.5311 13.9361 51.7724 15.835 51.7724C18.1845 51.7724 20.2443 51.4989 22.0145 50.9517C23.8169 50.4046 25.3135 49.6482 26.5043 48.6827C27.7274 47.6849 28.6446 46.5102 29.2561 45.1584C29.8677 43.8067 30.1734 42.3422 30.1734 40.7652C30.1734 38.8341 29.755 37.257 28.9182 36.034C28.1136 34.7788 27.148 33.781 26.0216 33.0408C24.8951 32.3005 23.7525 31.7695 22.5939 31.4476C21.4674 31.0936 20.5823 30.8522 19.9386 30.7235C17.7822 30.1763 16.0281 29.7257 14.6763 29.3717C13.3568 29.0177 12.3108 28.6636 11.5383 28.3096C10.7981 27.9556 10.2992 27.5693 10.0417 27.1509C9.78423 26.7325 9.65549 26.1854 9.65549 25.5095C9.65549 24.7692 9.81642 24.1577 10.1383 23.675C10.4601 23.1922 10.8624 22.7899 11.3452 22.468C11.8602 22.1462 12.4234 21.9209 13.0349 21.7921C13.6464 21.6634 14.2579 21.599 14.8695 21.599C15.8028 21.599 16.6557 21.6795 17.4282 21.8404C18.2328 22.0013 18.9409 22.2749 19.5524 22.6611C20.1639 23.0473 20.6467 23.5784 21.0007 24.2543C21.3869 24.9302 21.6122 25.7831 21.6766 26.813H29.0148C29.0148 24.8175 28.6285 23.1278 27.8561 21.7439C27.1158 20.3277 26.102 19.1691 24.8146 18.2679C23.5272 17.3667 22.0467 16.723 20.3731 16.3368C18.7317 15.9184 17.0098 15.7092 15.2074 15.7092C13.6625 15.7092 12.1176 15.9184 10.5728 16.3368C9.02788 16.7552 7.64393 17.3989 6.4209 18.2679C5.19787 19.1369 4.20014 20.2312 3.4277 21.5507C2.68745 22.8381 2.31732 24.3669 2.31732 26.1371C2.31732 27.7142 2.60698 29.0659 3.18631 30.1924C3.79783 31.2867 4.58636 32.204 5.55191 32.9442C6.51746 33.6845 7.61175 34.296 8.83478 34.7788C10.0578 35.2294 11.313 35.6156 12.6004 35.9374C13.8556 36.2915 15.0948 36.6133 16.3178 36.903C17.5408 37.1926 18.6351 37.5306 19.6006 37.9168C20.5662 38.303 21.3386 38.7858 21.918 39.3651C22.5295 39.9445 22.8352 40.7008 22.8352 41.6342C22.8352 42.5032 22.6099 43.2273 22.1594 43.8067C21.7088 44.3538 21.1455 44.7883 20.4696 45.1101C19.7938 45.432 19.0696 45.6573 18.2972 45.786C17.5247 45.8826 16.8006 45.9309 16.1247 45.9309C15.1269 45.9309 14.1614 45.8182 13.228 45.5929C12.2947 45.3354 11.4739 44.9653 10.7659 44.4825C10.09 43.9676 9.54284 43.3078 9.12444 42.5032C8.70604 41.6985 8.49683 40.7169 8.49683 39.5582ZM33.7177 16.5299V51H40.8144V27.9234H40.911L55.2494 51H62.829V16.5299H55.7322V39.6548H55.6356L41.2489 16.5299H33.7177ZM74.6188 33.9098C74.6188 32.3971 74.7798 30.9327 75.1016 29.5165C75.4557 28.1004 76.0028 26.8452 76.7431 25.7509C77.4833 24.6244 78.4489 23.7393 79.6397 23.0956C80.8305 22.4197 82.2789 22.0818 83.9847 22.0818C85.6905 22.0818 87.1388 22.4197 88.3296 23.0956C89.5205 23.7393 90.486 24.6244 91.2263 25.7509C91.9665 26.8452 92.4976 28.1004 92.8194 29.5165C93.1735 30.9327 93.3505 32.3971 93.3505 33.9098C93.3505 35.3581 93.1735 36.7742 92.8194 38.1582C92.4976 39.51 91.9665 40.733 91.2263 41.8273C90.486 42.9216 89.5205 43.8067 88.3296 44.4825C87.1388 45.1262 85.6905 45.4481 83.9847 45.4481C82.2789 45.4481 80.8305 45.1262 79.6397 44.4825C78.4489 43.8067 77.4833 42.9216 76.7431 41.8273C76.0028 40.733 75.4557 39.51 75.1016 38.1582C74.7798 36.7742 74.6188 35.3581 74.6188 33.9098ZM67.0393 33.9098C67.0393 36.4202 67.4255 38.7697 68.1979 40.9583C68.9704 43.1147 70.0808 44.9975 71.5291 46.6068C72.9774 48.216 74.7476 49.4873 76.8396 50.4207C78.9638 51.3218 81.3455 51.7724 83.9847 51.7724C86.656 51.7724 89.0377 51.3218 91.1297 50.4207C93.2218 49.4873 94.9919 48.216 96.4403 46.6068C97.8886 44.9975 98.999 43.1147 99.7714 40.9583C100.544 38.7697 100.93 36.4202 100.93 33.9098C100.93 31.335 100.544 28.9533 99.7714 26.7647C98.999 24.544 97.8886 22.6129 96.4403 20.9714C94.9919 19.33 93.2218 18.0426 91.1297 17.1092C89.0377 16.1759 86.656 15.7092 83.9847 15.7092C81.3455 15.7092 78.9638 16.1759 76.8396 17.1092C74.7476 18.0426 72.9774 19.33 71.5291 20.9714C70.0808 22.6129 68.9704 24.544 68.1979 26.7647C67.4255 28.9533 67.0393 31.335 67.0393 33.9098ZM137.974 51L147.244 16.5299H139.809L134.16 40.2824H134.064L128.174 16.5299H121.077L115.091 39.9927H114.994L109.539 16.5299H101.959L111.084 51H118.76L124.505 27.5372H124.601L130.443 51H137.974Z" fill="#1A83CC"/>
<path d="M34.7064 65.2423V99.7124H41.8032V75.5254H41.8997L50.3483 99.7124H56.1899L64.6384 75.284H64.735V99.7124H71.8318V65.2423H61.1624L53.5346 88.9465H53.438L45.3757 65.2423H34.7064ZM83.1396 82.6222C83.1396 81.1095 83.3005 79.6451 83.6224 78.2289C83.9764 76.8128 84.5236 75.5576 85.2638 74.4633C86.0041 73.3368 86.9696 72.4517 88.1605 71.808C89.3513 71.1321 90.7996 70.7942 92.5054 70.7942C94.2112 70.7942 95.6596 71.1321 96.8504 71.808C98.0413 72.4517 99.0068 73.3368 99.7471 74.4633C100.487 75.5576 101.018 76.8128 101.34 78.2289C101.694 79.6451 101.871 81.1095 101.871 82.6222C101.871 84.0705 101.694 85.4866 101.34 86.8706C101.018 88.2224 100.487 89.4454 99.7471 90.5397C99.0068 91.634 98.0413 92.5191 96.8504 93.1949C95.6596 93.8386 94.2112 94.1605 92.5054 94.1605C90.7996 94.1605 89.3513 93.8386 88.1605 93.1949C86.9696 92.5191 86.0041 91.634 85.2638 90.5397C84.5236 89.4454 83.9764 88.2224 83.6224 86.8706C83.3005 85.4866 83.1396 84.0705 83.1396 82.6222ZM75.5601 82.6222C75.5601 85.1326 75.9463 87.4821 76.7187 89.6707C77.4912 91.8271 78.6015 93.7099 80.0499 95.3192C81.4982 96.9284 83.2684 98.1997 85.3604 99.1331C87.4846 100.034 89.8663 100.485 92.5054 100.485C95.1768 100.485 97.5585 100.034 99.6505 99.1331C101.743 98.1997 103.513 96.9284 104.961 95.3192C106.409 93.7099 107.52 91.8271 108.292 89.6707C109.065 87.4821 109.451 85.1326 109.451 82.6222C109.451 80.0474 109.065 77.6657 108.292 75.4771C107.52 73.2564 106.409 71.3253 104.961 69.6838C103.513 68.0424 101.743 66.755 99.6505 65.8216C97.5585 64.8883 95.1768 64.4216 92.5054 64.4216C89.8663 64.4216 87.4846 64.8883 85.3604 65.8216C83.2684 66.755 81.4982 68.0424 80.0499 69.6838C78.6015 71.3253 77.4912 73.2564 76.7187 75.4771C75.9463 77.6657 75.5601 80.0474 75.5601 82.6222ZM142.44 86.6775V65.2423H134.86V86.6775C134.86 89.2523 134.345 91.1512 133.315 92.3742C132.285 93.5651 130.419 94.1605 127.715 94.1605C126.17 94.1605 124.931 93.9513 123.998 93.5329C123.097 93.0823 122.389 92.5191 121.874 91.8432C121.359 91.1351 121.021 90.3305 120.86 89.4293C120.699 88.5281 120.618 87.6109 120.618 86.6775V65.2423H113.039V86.6775C113.039 91.3765 114.31 94.8525 116.853 97.1054C119.428 99.3584 123.048 100.485 127.715 100.485C132.318 100.485 135.922 99.3584 138.529 97.1054C141.136 94.8203 142.44 91.3443 142.44 86.6775ZM147.519 65.2423V99.7124H154.616V76.6358H154.712L169.051 99.7124H176.63V65.2423H169.534V88.3672H169.437L155.05 65.2423H147.519ZM189.482 71.6149V99.7124H197.062V71.6149H207.393V65.2423H179.151V71.6149H189.482ZM214.178 86.3878L218.668 73.7391H218.764L223.109 86.3878H214.178ZM214.902 65.2423L201.867 99.7124H209.495L212.198 92.0363H225.089L227.696 99.7124H235.565L222.675 65.2423H214.902ZM237.089 65.2423V99.7124H244.668V65.2423H237.089ZM249.879 65.2423V99.7124H256.975V76.6358H257.072L271.41 99.7124H278.99V65.2423H271.893V88.3672H271.797L257.41 65.2423H249.879Z" fill="#1A83CC"/>
<path d="M149.469 25.9505L156.693 15.6631L163.92 25.9527C159.335 23.9718 154.05 23.9703 149.469 25.9505Z" stroke="#1A83CC" stroke-width="3" stroke-miterlimit="10" stroke-linecap="round" stroke-linejoin="round"/>
<path d="M132.014 50.8025L156.692 15.6636L169.031 33.2341L164.405 39.8203L159.779 33.2327L147.439 50.8025H132.014Z" stroke="#1A83CC" stroke-width="3" stroke-miterlimit="10" stroke-linecap="round" stroke-linejoin="round"/>
<path d="M180.091 31.409L175.203 24.4473L170.314 31.4068C173.382 29.9464 177.02 29.9464 180.091 31.409Z" stroke="#1A83CC" stroke-width="3" stroke-miterlimit="10" stroke-linecap="round" stroke-linejoin="round"/>
<path d="M172.115 50.8024L164.405 39.8202L175.202 24.4473L193.707 50.8024H172.115Z" stroke="#1A83CC" stroke-width="3" stroke-miterlimit="10" stroke-linecap="round" stroke-linejoin="round"/>
<path d="M147.439 50.8027L159.779 33.2329L172.115 50.8027H147.439Z" stroke="#1A83CC" stroke-width="3" stroke-miterlimit="10" stroke-linecap="round" stroke-linejoin="round"/>
<path d="M172.113 43.8506L176.741 37.2607L181.368 43.8506L176.741 37.2607L172.113 43.8506Z" stroke="#1A83CC" stroke-width="3" stroke-miterlimit="10" stroke-linecap="round" stroke-linejoin="round"/>
<path d="M142.039 44.2141L145.126 39.8203L148.208 44.2141L145.126 39.8203L142.039 44.2141Z" stroke="#1A83CC" stroke-width="3" stroke-miterlimit="10" stroke-linecap="round" stroke-linejoin="round"/>
<path d="M169.031 33.2341L175.202 24.4473L179.186 30.12C180.764 28.1925 181.71 25.7775 181.71 23.1465C181.71 16.8582 176.342 11.7603 169.716 11.7603C164.807 11.7603 160.591 14.5625 158.735 18.5705L169.031 33.2341Z" stroke="#1A83CC" stroke-width="3" stroke-miterlimit="10" stroke-linecap="round" stroke-linejoin="round"/>
<path d="M162.173 5.86475L163.812 9.62087L162.173 5.86475Z" stroke="#1A83CC" stroke-width="3" stroke-miterlimit="10" stroke-linecap="round" stroke-linejoin="round"/>
<path d="M169.716 2V8.50788V2Z" stroke="#1A83CC" stroke-width="3" stroke-miterlimit="10" stroke-linecap="round" stroke-linejoin="round"/>
<path d="M183.966 28.7505L187.923 30.3068L183.966 28.7505Z" stroke="#1A83CC" stroke-width="3" stroke-miterlimit="10" stroke-linecap="round" stroke-linejoin="round"/>
<path d="M153.961 8.19385L158.81 12.794L153.961 8.19385Z" stroke="#1A83CC" stroke-width="3" stroke-miterlimit="10" stroke-linecap="round" stroke-linejoin="round"/>
<path d="M187.924 15.9878L183.964 17.5434L187.924 15.9878Z" stroke="#1A83CC" stroke-width="3" stroke-miterlimit="10" stroke-linecap="round" stroke-linejoin="round"/>
<path d="M191.992 23.1465H185.139H191.992Z" stroke="#1A83CC" stroke-width="3" stroke-miterlimit="10" stroke-linecap="round" stroke-linejoin="round"/>
<path d="M177.256 5.86475L175.618 9.62087L177.256 5.86475Z" stroke="#1A83CC" stroke-width="3" stroke-miterlimit="10" stroke-linecap="round" stroke-linejoin="round"/>
<path d="M185.468 8.19385L180.622 12.794L185.468 8.19385Z" stroke="#1A83CC" stroke-width="3" stroke-miterlimit="10" stroke-linecap="round" stroke-linejoin="round"/>
</svg>
