<svg width="11" height="15" viewBox="0 0 11 15" fill="none" xmlns="http://www.w3.org/2000/svg">
<path d="M1.26525 5.03125C1.4995 7.02175 3.30575 8.7665 5.5015 8.7665C7.8565 8.7665 9.76525 6.7605 9.76525 4.59575C9.76525 4.57725 9.764 4.55925 9.76375 4.5415C7.33425 4.21175 4.239 5.977 1.26525 5.03125" fill="black"/>
<path d="M11 4.61125C11 1.7605 9.573 0.0005 9.57275 0H1.427C1.427 0 0 1.763 0 4.61125C0 7.31825 2.314 9.83275 5.22375 9.9835C5.18975 11.5555 5.056 13.1925 4.671 13.7595C4.12875 14.5585 2.22825 14.148 2.22825 15H8.7725C8.7725 14.1478 6.87125 14.5585 6.329 13.7595C5.944 13.1925 5.81025 11.5557 5.77625 9.9835C8.68525 9.833 11 7.31825 11 4.61125ZM5.5 9.3135C3.0515 9.3135 1.0375 7.36825 0.7765 5.149C0.756908 4.98798 0.746807 4.82595 0.74625 4.66375C0.74625 2.20125 1.9795 0.67775 1.9795 0.67775H9.02025C9.0205 0.6785 10.2317 2.175 10.252 4.60325C10.2522 4.62325 10.2537 4.643 10.2537 4.66375C10.2537 7.077 8.1255 9.3135 5.5 9.3135Z" fill="black"/>
</svg>
